<svg width="429" height="383" xmlns="http://www.w3.org/2000/svg">

 <g>
  <title>background</title>
  <rect fill="none" id="canvas_background" height="385" width="431" y="-1" x="-1"/>
 </g>
 <g>
  <title>Layer 1</title>
  <text id="svg_1" font-size="20" font-family="'Verdana-Bold'" fill="#FFFF00" transform="matrix(1,0,0,1,168.7834,543.8088) ">simpleicon.com</text>
  <text id="svg_2" font-size="20" font-family="'Verdana'" fill="#FFFF00" transform="matrix(1,0,0,1,9.1931,567.8088) ">Collection Of Flat Icon, Symbols And Glyph Icons</text>
  <g stroke="null" id="svg_15">
   <g stroke="null" id="svg_13">
    <path fill="#47c9e5" stroke-width="0" id="svg_10" d="m177.012,234.484l0,25.212l-89.612,-38.847l0,-21.556l89.612,-38.838l0,25.388l-62.439,24.058l62.439,24.583z"/>
    <path fill="#47c9e5" stroke-width="0" id="svg_11" d="m232.425,159.919l-24.95,102.713c-0.83,3.38 -1.554,6.056 -2.178,8.018c-0.624,1.961 -1.569,3.495 -2.847,4.581c-1.277,1.102 -3.133,1.649 -5.572,1.649c-6.05,0 -9.083,-2.62 -9.083,-7.835c0,-1.368 0.593,-4.783 1.78,-10.245l24.854,-102.713c1.308,-5.461 2.555,-9.204 3.742,-11.22c1.187,-2.019 3.5,-3.03 6.95,-3.03c2.968,0 5.241,0.714 6.81,2.14c1.574,1.426 2.364,3.387 2.364,5.879c0.001,1.841 -0.628,5.195 -1.87,10.063z"/>
    <path fill="#47c9e5" stroke-width="0" id="svg_12" d="m334.599,220.849l-89.611,39.022l0,-25.212l62.625,-24.583l-62.625,-24.234l0,-25.031l89.611,38.658l0,21.38z"/>
   </g>
   <path fill="#47c9e5" stroke-width="0" id="svg_14" d="m392.281,15.719l-362.562,0c-13.65,0 -24.719,11.072 -24.719,24.722l0,313.121c0,13.645 11.069,24.72 24.719,24.72l362.563,0c13.654,0 24.719,-11.075 24.719,-24.72l0,-313.121c-0.001,-13.655 -11.066,-24.722 -24.72,-24.722zm-61.8,16.481c9.082,0 16.48,7.39 16.48,16.481c0,9.088 -7.398,16.479 -16.48,16.479c-9.089,0 -16.481,-7.391 -16.481,-16.479c0,-9.09 7.392,-16.481 16.481,-16.481zm-45.319,0c9.083,0 16.476,7.39 16.476,16.481c0,9.088 -7.393,16.479 -16.476,16.479c-9.088,0 -16.481,-7.391 -16.481,-16.479c-0.001,-9.09 7.393,-16.481 16.481,-16.481zm107.119,321.362l-362.562,0l0,-271.921l362.563,0l0,271.921l-0.001,0zm-16.481,-288.402c-9.083,0 -16.48,-7.391 -16.48,-16.479c0,-9.091 7.397,-16.481 16.48,-16.481s16.481,7.39 16.481,16.481c0,9.088 -7.398,16.479 -16.481,16.479z"/>
  </g>
  <g stroke="null" id="svg_3">
   <g stroke="null" id="svg_4">
    <path stroke="null" id="svg_5" d="m184.012,223.484l0,25.212l-89.612,-38.847l0,-21.556l89.612,-38.838l0,25.388l-62.439,24.058l62.439,24.583z"/>
    <path stroke="null" id="svg_6" d="m239.425,148.919l-24.95,102.713c-0.83,3.38 -1.554,6.056 -2.178,8.018c-0.624,1.961 -1.569,3.495 -2.847,4.581c-1.277,1.102 -3.133,1.649 -5.572,1.649c-6.05,0 -9.083,-2.62 -9.083,-7.835c0,-1.368 0.593,-4.783 1.78,-10.245l24.854,-102.713c1.308,-5.461 2.555,-9.204 3.742,-11.22c1.187,-2.019 3.5,-3.03 6.95,-3.03c2.968,0 5.241,0.714 6.81,2.14c1.574,1.426 2.364,3.387 2.364,5.879c0.001,1.841 -0.628,5.195 -1.87,10.063z"/>
    <path stroke="null" id="svg_7" d="m341.599,209.849l-89.611,39.022l0,-25.212l62.625,-24.583l-62.625,-24.234l0,-25.031l89.611,38.658l0,21.38z"/>
   </g>
   <path stroke="null" id="svg_8" d="m399.281,4.719l-362.562,0c-13.65,0 -24.719,11.072 -24.719,24.722l0,313.121c0,13.645 11.069,24.72 24.719,24.72l362.563,0c13.654,0 24.719,-11.075 24.719,-24.72l0,-313.121c-0.001,-13.655 -11.066,-24.722 -24.72,-24.722zm-61.8,16.481c9.082,0 16.48,7.39 16.48,16.481c0,9.088 -7.398,16.479 -16.48,16.479c-9.089,0 -16.481,-7.391 -16.481,-16.479c0,-9.09 7.392,-16.481 16.481,-16.481zm-45.319,0c9.083,0 16.476,7.39 16.476,16.481c0,9.088 -7.393,16.479 -16.476,16.479c-9.088,0 -16.481,-7.391 -16.481,-16.479c-0.001,-9.09 7.393,-16.481 16.481,-16.481zm107.119,321.362l-362.562,0l0,-271.921l362.563,0l0,271.921l-0.001,0zm-16.481,-288.402c-9.083,0 -16.48,-7.391 -16.48,-16.479c0,-9.091 7.397,-16.481 16.48,-16.481s16.481,7.39 16.481,16.481c0,9.088 -7.398,16.479 -16.481,16.479z"/>
  </g>
 </g>
</svg>