<svg width="583" height="112" xmlns="http://www.w3.org/2000/svg">
 <!-- Created with Method Draw - http://github.com/duopixel/Method-Draw/ -->

 <g>
  <title>background</title>
  <rect x="-1" y="-1" width="585" height="114" id="canvas_background" fill="none"/>
 </g>
 <g>
  <title>Layer 1</title>
  <g id="svg_3" class="lines" stroke-miterlimit="10" stroke-width="6.4" stroke-linecap="round" fill-rule="evenodd" fill="none">
   <path fill-rule="evenodd" fill="none" stroke="#FFF" id="svg_1" d="m19.23,77.404c-4.00402,-1.40001 -7.09799,-3.24799 -9.282,-5.544l2.436,-4.788c2.12801,2.12801 4.95598,3.84999 8.484,5.166c3.52802,1.31601 7.16798,1.974 10.92,1.974c5.26403,0 9.21199,-0.96599 11.844,-2.898c2.63201,-1.93201 3.948,-4.43798 3.948,-7.518c0,-2.35201 -0.71399,-4.22799 -2.142,-5.628c-1.42801,-1.40001 -3.17799,-2.478 -5.25,-3.234c-2.07201,-0.756 -4.95598,-1.582 -8.652,-2.478c-4.42402,-1.12001 -7.95199,-2.19799 -10.584,-3.234c-2.63201,-1.03601 -4.88599,-2.61799 -6.762,-4.746c-1.87601,-2.12801 -2.814,-5.01198 -2.814,-8.652c0,-2.96801 0.78399,-5.66999 2.352,-8.106c1.56801,-2.43601 3.97598,-4.38199 7.224,-5.838c3.24802,-1.45601 7.27998,-2.184 12.096,-2.184c3.36002,0 6.64998,0.462 9.87,1.386c3.22002,0.924 6.00599,2.19799 8.358,3.822l-2.1,4.956c-2.46401,-1.62401 -5.09599,-2.842 -7.896,-3.654c-2.80001,-0.812 -5.54399,-1.218 -8.232,-1.218c-5.15203,0 -9.02999,0.99399 -11.634,2.982c-2.60401,1.98801 -3.906,4.54998 -3.906,7.686c0,2.35201 0.71399,4.24199 2.142,5.67c1.42801,1.42801 3.21999,2.52 5.376,3.276c2.15601,0.756 5.05398,1.582 8.694,2.478c4.31202,1.06401 7.79799,2.11399 10.458,3.15c2.66001,1.03601 4.91399,2.60399 6.762,4.704c1.84801,2.10001 2.772,4.94198 2.772,8.526c0,2.96801 -0.79799,5.66999 -2.394,8.106c-1.59601,2.43601 -4.04598,4.36799 -7.35,5.796c-3.30402,1.42801 -7.36398,2.142 -12.18,2.142c-4.36802,0 -8.55398,-0.69999 -12.558,-2.1l0,0zm70.014,-1.092c-1.12001,1.00801 -2.50599,1.778 -4.158,2.31c-1.65201,0.532 -3.37399,0.798 -5.166,0.798c-4.14402,0 -7.33599,-1.11999 -9.576,-3.36c-2.24001,-2.24001 -3.36,-5.40398 -3.36,-9.492l0,-26.712l-7.896,0l0,-5.04l7.896,0l0,-9.66l5.964,0l0,9.66l13.44,0l0,5.04l-13.44,0l0,26.376c0,2.63201 0.65799,4.63399 1.974,6.006c1.31601,1.37201 3.20599,2.058 5.67,2.058c1.23201,0 2.42199,-0.196 3.57,-0.588c1.14801,-0.392 2.142,-0.952 2.982,-1.68l2.1,4.284zm47.712,-17.556l-36.96,0c0.336,4.59202 2.09998,8.30199 5.292,11.13c3.19202,2.82801 7.22398,4.242 12.096,4.242c2.74401,0 5.26399,-0.49 7.56,-1.47c2.29601,-0.98 4.28399,-2.42199 5.964,-4.326l3.36,3.864c-1.96001,2.35201 -4.40999,4.14399 -7.35,5.376c-2.94001,1.23201 -6.17398,1.848 -9.702,1.848c-4.53602,0 -8.55398,-0.96599 -12.054,-2.898c-3.50002,-1.93201 -6.22999,-4.60598 -8.19,-8.022c-1.96001,-3.41602 -2.94,-7.27998 -2.94,-11.592c0,-4.31202 0.93799,-8.17598 2.814,-11.592c1.87601,-3.41602 4.45198,-6.07599 7.728,-7.98c3.27602,-1.90401 6.95798,-2.856 11.046,-2.856c4.08802,0 7.75598,0.95199 11.004,2.856c3.24802,1.90401 5.79599,4.54998 7.644,7.938c1.84801,3.38802 2.772,7.26598 2.772,11.634l-0.084,1.848zm-32.046,-15.078c-2.88401,2.71601 -4.522,6.25798 -4.914,10.626l31.332,0c-0.392,-4.36802 -2.02999,-7.90999 -4.914,-10.626c-2.88401,-2.71601 -6.48198,-4.074 -10.794,-4.074c-4.25602,0 -7.82599,1.35799 -10.71,4.074l0,0zm80.598,-8.862l-19.656,44.184l-6.132,0l-19.572,-44.184l6.216,0l16.548,37.632l16.716,-37.632l5.88,0zm45.612,23.94l-36.96,0c0.336,4.59202 2.09998,8.30199 5.292,11.13c3.19202,2.82801 7.22398,4.242 12.096,4.242c2.74401,0 5.26399,-0.49 7.56,-1.47c2.29601,-0.98 4.28399,-2.42199 5.964,-4.326l3.36,3.864c-1.96001,2.35201 -4.40998,4.14399 -7.35,5.376c-2.94001,1.23201 -6.17398,1.848 -9.702,1.848c-4.53602,0 -8.55398,-0.96599 -12.054,-2.898c-3.50002,-1.93201 -6.22999,-4.60598 -8.19,-8.022c-1.96001,-3.41602 -2.94,-7.27998 -2.94,-11.592c0,-4.31202 0.93799,-8.17598 2.814,-11.592c1.87601,-3.41602 4.45198,-6.07599 7.728,-7.98c3.27602,-1.90401 6.95798,-2.856 11.046,-2.856c4.08802,0 7.75598,0.95199 11.004,2.856c3.24802,1.90401 5.79599,4.54998 7.644,7.938c1.84801,3.38802 2.772,7.26598 2.772,11.634l-0.084,1.848zm-32.046,-15.078c-2.88401,2.71601 -4.522,6.25798 -4.914,10.626l31.332,0c-0.392,-4.36802 -2.02999,-7.90999 -4.914,-10.626c-2.88401,-2.71601 -6.48198,-4.074 -10.794,-4.074c-4.25602,0 -7.82599,1.35799 -10.71,4.074l0,0zm80.052,-4.368c3.27602,3.22002 4.914,7.90997 4.914,14.07l0,25.62l-5.964,0l0,-25.032c0,-4.59202 -1.14799,-8.09199 -3.444,-10.5c-2.29601,-2.40801 -5.57198,-3.612 -9.828,-3.612c-4.76002,0 -8.52599,1.41399 -11.298,4.242c-2.77201,2.82801 -4.158,6.73398 -4.158,11.718l0,23.184l-5.964,0l0,-44.184l5.712,0l0,8.148c1.62401,-2.68801 3.87799,-4.77399 6.762,-6.258c2.88401,-1.48401 6.22998,-2.226 10.038,-2.226c5.54403,0 9.95398,1.60998 13.23,4.83l0,0z"/>
   <path fill-rule="evenodd" fill="none" stroke="#47c9e5" stroke-width="2" id="svg_2" d="m342.9,20.2l0,58.8l-13.608,0l0,-24.108l-26.712,0l0,24.108l-13.608,0l0,-58.8l13.608,0l0,23.184l26.712,0l0,-23.184l13.608,0zm47.376,17.934c3.75202,3.33202 5.628,8.35797 5.628,15.078l0,25.788l-12.264,0l0,-5.628c-2.46401,4.20002 -7.05597,6.3 -13.776,6.3c-3.47202,0 -6.48199,-0.58799 -9.03,-1.764c-2.54801,-1.17601 -4.49399,-2.79999 -5.838,-4.872c-1.34401,-2.07201 -2.016,-4.42399 -2.016,-7.056c0,-4.20002 1.58198,-7.50399 4.746,-9.912c3.16402,-2.40801 8.04997,-3.612 14.658,-3.612l10.416,0c0,-2.85601 -0.86799,-5.05399 -2.604,-6.594c-1.73601,-1.54001 -4.33998,-2.31 -7.812,-2.31c-2.40801,0 -4.77399,0.378 -7.098,1.134c-2.32401,0.756 -4.29799,1.77799 -5.922,3.066l-4.704,-9.156c2.46401,-1.73601 5.41798,-3.08 8.862,-4.032c3.44402,-0.952 6.98598,-1.428 10.626,-1.428c7.00003,0 12.37598,1.66598 16.128,4.998l0,0zm-11.172,31.164c1.73601,-1.03601 2.968,-2.56199 3.696,-4.578l0,-4.62l-8.988,0c-5.37603,0 -8.064,1.76398 -8.064,5.292c0,1.68001 0.65799,3.01 1.974,3.99c1.31601,0.98 3.12199,1.47 5.418,1.47c2.24001,0 4.22799,-0.51799 5.964,-1.554l0,0zm28.644,-52.626l13.104,0l0,62.328l-13.104,0l0,-62.328zm59.64,21.462c3.75202,3.33202 5.628,8.35797 5.628,15.078l0,25.788l-12.264,0l0,-5.628c-2.46401,4.20002 -7.05597,6.3 -13.776,6.3c-3.47202,0 -6.48199,-0.58799 -9.03,-1.764c-2.54801,-1.17601 -4.49399,-2.79999 -5.838,-4.872c-1.34401,-2.07201 -2.016,-4.42399 -2.016,-7.056c0,-4.20002 1.58198,-7.50399 4.746,-9.912c3.16402,-2.40801 8.04997,-3.612 14.658,-3.612l10.416,0c0,-2.85601 -0.86799,-5.05399 -2.604,-6.594c-1.73601,-1.54001 -4.33998,-2.31 -7.812,-2.31c-2.40801,0 -4.77399,0.378 -7.098,1.134c-2.32401,0.756 -4.29799,1.77799 -5.922,3.066l-4.704,-9.156c2.46401,-1.73601 5.41798,-3.08 8.862,-4.032c3.44402,-0.952 6.98598,-1.428 10.626,-1.428c7.00004,0 12.37598,1.66598 16.128,4.998l0,0zm-11.172,31.164c1.73601,-1.03601 2.968,-2.56199 3.696,-4.578l0,-4.62l-8.988,0c-5.37603,0 -8.064,1.76398 -8.064,5.292c0,1.68001 0.65799,3.01 1.974,3.99c1.31601,0.98 3.12199,1.47 5.418,1.47c2.24001,0 4.22799,-0.51799 5.964,-1.554l0,0zm32.844,8.988c-3.58402,-0.924 -6.43999,-2.08599 -8.568,-3.486l4.368,-9.408c2.01601,1.28801 4.45199,2.338 7.308,3.15c2.85601,0.812 5.65599,1.218 8.4,1.218c5.54403,0 8.316,-1.37199 8.316,-4.116c0,-1.28801 -0.75599,-2.212 -2.268,-2.772c-1.51201,-0.56 -3.83598,-1.036 -6.972,-1.428c-3.69602,-0.56 -6.74799,-1.204 -9.156,-1.932c-2.40801,-0.728 -4.49399,-2.01599 -6.258,-3.864c-1.76401,-1.84801 -2.646,-4.47998 -2.646,-7.896c0,-2.85601 0.82599,-5.38999 2.478,-7.602c1.65201,-2.21201 4.05998,-3.93399 7.224,-5.166c3.16402,-1.23201 6.90198,-1.848 11.214,-1.848c3.19202,0 6.36998,0.35 9.534,1.05c3.16402,0.7 5.78199,1.66599 7.854,2.898l-4.368,9.324c-3.97602,-2.24001 -8.31598,-3.36 -13.02,-3.36c-2.80001,0 -4.89999,0.392 -6.3,1.176c-1.40001,0.784 -2.1,1.79199 -2.1,3.024c0,1.40001 0.75599,2.38 2.268,2.94c1.51201,0.56 3.91998,1.092 7.224,1.596c3.69602,0.616 6.71999,1.274 9.072,1.974c2.35201,0.7 4.39599,1.97399 6.132,3.822c1.73601,1.84801 2.604,4.42398 2.604,7.728c0,2.80001 -0.83999,5.29199 -2.52,7.476c-1.68001,2.18401 -4.12998,3.87799 -7.35,5.082c-3.22002,1.20401 -7.04198,1.806 -11.466,1.806c-3.75202,0 -7.41998,-0.462 -11.004,-1.386l0,0zm84.42,-18.186l-34.188,0c0.616,2.80001 2.07199,5.01199 4.368,6.636c2.29601,1.62401 5.15198,2.436 8.568,2.436c2.35201,0 4.43799,-0.35 6.258,-1.05c1.82001,-0.7 3.51399,-1.80599 5.082,-3.318l6.972,7.56c-4.25602,4.87202 -10.47196,7.308 -18.648,7.308c-5.09603,0 -9.60398,-0.99399 -13.524,-2.982c-3.92002,-1.98801 -6.94399,-4.74598 -9.072,-8.274c-2.12801,-3.52802 -3.192,-7.53198 -3.192,-12.012c0,-4.42402 1.04999,-8.41398 3.15,-11.97c2.10001,-3.55602 4.98398,-6.32799 8.652,-8.316c3.66802,-1.98801 7.76998,-2.982 12.306,-2.982c4.42402,0 8.42798,0.95199 12.012,2.856c3.58402,1.90401 6.39799,4.63398 8.442,8.19c2.04401,3.55602 3.066,7.68598 3.066,12.39c0,0.168 -0.084,1.34399 -0.252,3.528l0,0zm-30.66,-14.532c-2.01601,1.68001 -3.248,3.97599 -3.696,6.888l22.26,0c-0.448,-2.85601 -1.67999,-5.13799 -3.696,-6.846c-2.01601,-1.70801 -4.47998,-2.562 -7.392,-2.562c-2.96801,0 -5.45999,0.83999 -7.476,2.52l0,0z"/>
  </g>
 </g>
</svg>